<?xml version="1.0" ?><!DOCTYPE svg  PUBLIC '-//W3C//DTD SVG 1.1//EN'  'http://www.w3.org/Graphics/SVG/1.1/DTD/svg11.dtd'><svg enable-background="new 0 0 128 128" height="128px" id="Слой_1" version="1.1" viewBox="0 0 128 128" width="128px" xml:space="preserve" xmlns="http://www.w3.org/2000/svg" xmlns:xlink="http://www.w3.org/1999/xlink"><g><path d="M120.9951172,7.4003906c-1.5449219,0-36.0185547,0.2138672-56.9951172,17.2016602    C43.0249023,7.6142578,8.5498047,7.4003906,7.0048828,7.4003906H1.7275391v105.546875h5.2773438    c27.534668,0,44.7817383,5.171875,51.4726563,7.6523438h10.9990234    c6.5976563-2.4736328,23.7197266-7.6523438,51.5185547-7.6523438h5.2773438V7.4003906H120.9951172z M58.7226563,109.4931641    c-8.4599609-2.7597656-23.9282227-6.5214844-46.4404297-7.0390625v-84.25    C22.5239258,18.9545898,45.25,21.9560547,58.7226563,33.9506836V109.4931641z M115.7177734,102.4541016    c-22.5117188,0.5175781-37.9804688,4.2792969-46.4404297,7.0390625V33.9506836    c13.4736328-11.9956055,36.2011719-14.996582,46.4404297-15.746582V102.4541016z" fill="#d72323"/></g></svg>